<svg id="Logo" xmlns="http://www.w3.org/2000/svg" width="134" height="38" viewBox="0 0 134 38">
  <metadata><?xpacket begin="﻿" id="W5M0MpCehiHzreSzNTczkc9d"?>
<x:xmpmeta xmlns:x="adobe:ns:meta/" x:xmptk="Adobe XMP Core 5.6-c138 79.159824, 2016/09/14-01:09:01        ">
   <rdf:RDF xmlns:rdf="http://www.w3.org/1999/02/22-rdf-syntax-ns#">
      <rdf:Description rdf:about=""/>
   </rdf:RDF>
</x:xmpmeta>
                                                                                                    
                                                                                                    
                                                                                                    
                                                                                                    
                                                                                                    
                                                                                                    
                                                                                                    
                                                                                                    
                                                                                                    
                                                                                                    
                                                                                                    
                                                                                                    
                                                                                                    
                                                                                                    
                                                                                                    
                                                                                                    
                                                                                                    
                                                                                                    
                                                                                                    
                                                                                                    
                           
<?xpacket end="w"?></metadata>
<defs>
    <style>
      .cls-1 {
        fill: #fff;
      }

      .cls-1, .cls-2 {
        fill-rule: evenodd;
      }

      .cls-2 {
        fill: #f8c40f;
      }
    </style>
  </defs>
  <path id="Vit_" data-name="Vit " class="cls-1" d="M41.747,30.36Q37.8,35.2,34.363,35.2a4.144,4.144,0,0,1-3.772-1.84,8.944,8.944,0,0,1-1.177-4.88,29.907,29.907,0,0,1,.459-4.62c0.14-.864.3-1.694,0.481-2.5a2.666,2.666,0,0,1-1.578.485,23.125,23.125,0,0,1-5.668-.48,34.414,34.414,0,0,1-6.845,9.9Q12.252,35.2,8.22,35.2q-4.152,0-6.187-4.84T0,17.28A72.46,72.46,0,0,1,1,4.64,5.977,5.977,0,0,1,2.014,1.82a2.9,2.9,0,0,1,2.255-.74Q6.9,1.08,6.9,3.36a8.586,8.586,0,0,1-.08.88,80.162,80.162,0,0,0-1.2,13.04,32.3,32.3,0,0,0,1.018,9.3Q7.662,29.76,9.7,29.76q2.075,0,4.51-2.88a32.427,32.427,0,0,0,4.47-7.24,9.913,9.913,0,0,1-3.672-3.94,12.087,12.087,0,0,1-1.237-5.58,13.015,13.015,0,0,1,.978-5.34A7.233,7.233,0,0,1,17.42,1.52,6.877,6.877,0,0,1,21.192.44a4.949,4.949,0,0,1,4.051,1.84,7.765,7.765,0,0,1,1.5,5.04,29.336,29.336,0,0,1-2,10.04,29.007,29.007,0,0,0,4.83.36,1.89,1.89,0,0,1,1.337.4,1.3,1.3,0,0,1,.2.294,3.209,3.209,0,0,1,.9-1.574,3.065,3.065,0,0,1,1.916-.48q2.035,0,2.036,1.36a31.467,31.467,0,0,1-.758,4.64,34.669,34.669,0,0,0-.958,5.96,4.22,4.22,0,0,0,.319,1.84,1.11,1.11,0,0,0,1.078.64,3,3,0,0,0,1.8-1,35.727,35.727,0,0,0,2.874-3.16,1.4,1.4,0,0,1,1.078-.56,0.922,0.922,0,0,1,.818.48,2.485,2.485,0,0,1,.3,1.32A3.684,3.684,0,0,1,41.747,30.36ZM21.432,5.78a1.335,1.335,0,0,0-1.2-.78,2,2,0,0,0-1.756,1.26A7.669,7.669,0,0,0,17.8,9.84q0,3.921,2.515,5.8a23.581,23.581,0,0,0,1.557-7.4A5.232,5.232,0,0,0,21.432,5.78Zm13.251,7.94a3.575,3.575,0,0,1-2.514-.78,2.83,2.83,0,0,1-.838-2.18,2.957,2.957,0,0,1,1.1-2.34,4.057,4.057,0,0,1,2.734-.94,3.77,3.77,0,0,1,2.395.72,2.443,2.443,0,0,1,.918,2.04,3.257,3.257,0,0,1-1.038,2.54A3.946,3.946,0,0,1,34.682,13.72ZM59.069,26.08a1.4,1.4,0,0,0-1.078.56,24.212,24.212,0,0,1-3.113,3.12,4.756,4.756,0,0,1-3.033,1.04,3.318,3.318,0,0,1-3.093-1.68q-0.978-1.68-.978-5.84,0-1.119.08-3.12h4.869q4.51,0,4.51-2.76a1.477,1.477,0,0,0-.279-1.04,1.264,1.264,0,0,0-.918-0.28h-4.47a14.025,14.025,0,0,0,5.189-10.8A6.718,6.718,0,0,0,55.8,1.56,2.985,2.985,0,0,0,53.162.08a5.744,5.744,0,0,0-4.251,2.16,18.147,18.147,0,0,0-3.373,5.8,38.962,38.962,0,0,0-2.075,8.04H41.188q-1.8,0-1.8,2.24a1.978,1.978,0,0,0,.419,1.4,2.233,2.233,0,0,0,1.617.44h1.557q-0.12,1.8-.12,3.56,0,11.481,8.142,11.48a8.209,8.209,0,0,0,4.67-1.36,16.975,16.975,0,0,0,3.752-3.48,3.685,3.685,0,0,0,.758-2.48,2.486,2.486,0,0,0-.3-1.32,0.923,0.923,0,0,0-.818-0.48h0ZM52.084,3.92q0.878,0,.878,2.36a11.131,11.131,0,0,1-1.178,4.62,13.659,13.659,0,0,1-3.532,4.58,55.856,55.856,0,0,1,1.1-5.9,21.352,21.352,0,0,1,1.4-4.16q0.738-1.5,1.337-1.5h0Z"/>
  <path id="Sea_" data-name="Sea " class="cls-2" d="M133.249,32.36a20.158,20.158,0,0,1-3.473,3.44,5.909,5.909,0,0,1-3.552,1.4,3.724,3.724,0,0,1-2.415-.9,5.478,5.478,0,0,1-1.656-2.46q-2.076,3.36-5.229,3.36a4.851,4.851,0,0,1-3.952-1.8,6.146,6.146,0,0,1-1.119-2.135,16.3,16.3,0,0,1-3.331,2.415,11.546,11.546,0,0,1-5.767,1.52,8.875,8.875,0,0,1-6.506-2.28,8.359,8.359,0,0,1-2.315-6.24,11.59,11.59,0,0,1,1.157-5.14A9.495,9.495,0,0,1,98.3,19.76a8.068,8.068,0,0,1,4.65-1.4,4.783,4.783,0,0,1,5.109,5.12,6.471,6.471,0,0,1-1.976,4.74q-1.976,1.98-6.685,3.14,1,1.84,3.792,1.84a8.72,8.72,0,0,0,4.091-1.26,13.51,13.51,0,0,0,3.971-3.3,1.741,1.741,0,0,1,.488-0.406,13.136,13.136,0,0,1,1.228-3.614,12.629,12.629,0,0,1,3.932-4.6,8.854,8.854,0,0,1,5.209-1.74,1.552,1.552,0,0,1,1.177.34,2.874,2.874,0,0,1,.5,1.22,9.391,9.391,0,0,1,1.756-.16q1.956,0,1.956,1.4a30.107,30.107,0,0,1-.6,4,38.906,38.906,0,0,0-.918,6.4,1.451,1.451,0,0,0,.3.96,0.964,0.964,0,0,0,.778.36,3.031,3.031,0,0,0,1.836-.98,34.322,34.322,0,0,0,2.914-3.18,1.4,1.4,0,0,1,1.077-.56,0.924,0.924,0,0,1,.819.48,2.491,2.491,0,0,1,.3,1.32A3.685,3.685,0,0,1,133.249,32.36Zm-30.774-5.8a3.3,3.3,0,0,0,1.357-2.6,1.74,1.74,0,0,0-.419-1.22,1.462,1.462,0,0,0-1.137-.46A2.926,2.926,0,0,0,99.781,24a8.033,8.033,0,0,0-1.018,4.16v0.08A9.057,9.057,0,0,0,102.475,26.56Zm17.1-3.3a8.491,8.491,0,0,0-2.255,3.22,10.857,10.857,0,0,0-.838,4.24,2.835,2.835,0,0,0,.5,1.84,1.692,1.692,0,0,0,1.377.6,2.188,2.188,0,0,0,1.676-1.04,6.758,6.758,0,0,0,1.158-2.76L122.671,22A4.831,4.831,0,0,0,119.578,23.26Zm-31.95-7.34a2.471,2.471,0,0,1-1.736-.64,1.993,1.993,0,0,1-.7-1.52,7.633,7.633,0,0,1,.12-1.4q0.12-1.2.12-1.52A2.775,2.775,0,0,0,83.8,8.28a8.526,8.526,0,0,0-4.071-.88,9.168,9.168,0,0,0-5.249,1.26A4.062,4.062,0,0,0,72.66,12.2a3.829,3.829,0,0,0,.938,2.6,7.743,7.743,0,0,0,2.335,1.8q1.4,0.72,3.911,1.72a50.518,50.518,0,0,1,4.87,2.24,9.722,9.722,0,0,1,3.133,2.72,6.842,6.842,0,0,1,1.3,4.24,8.372,8.372,0,0,1-3.572,7.26Q82,37.321,76.013,37.32a15.736,15.736,0,0,1-8.5-2.02,6.805,6.805,0,0,1-3.193-6.18,6.156,6.156,0,0,1,.758-3.36,2.5,2.5,0,0,1,2.235-1.16,2.671,2.671,0,0,1,1.756.56,1.784,1.784,0,0,1,.678,1.44,7.224,7.224,0,0,1-.12,1.4,4.44,4.44,0,0,1-.06.56,5.68,5.68,0,0,0-.06.84,2.843,2.843,0,0,0,1.816,2.68,11.91,11.91,0,0,0,5.089.88,9.84,9.84,0,0,0,5.308-1.22,3.841,3.841,0,0,0,1.916-3.42,3.391,3.391,0,0,0-.878-2.34,7.3,7.3,0,0,0-2.2-1.64q-1.317-.66-3.712-1.62a41.426,41.426,0,0,1-5.009-2.28,10.392,10.392,0,0,1-3.313-2.94,7.551,7.551,0,0,1-1.377-4.62,8.834,8.834,0,0,1,1.537-5.12,9.955,9.955,0,0,1,4.43-3.48,17.188,17.188,0,0,1,6.805-1.24,15.969,15.969,0,0,1,5.348.86,8.675,8.675,0,0,1,3.891,2.62,6.553,6.553,0,0,1,1.457,4.32,7.6,7.6,0,0,1-.758,3.8A2.443,2.443,0,0,1,87.628,15.92Z"/>
</svg>
